<?xml version="1.0" encoding="UTF-8"?>
<svg version="1.1" xmlns="http://www.w3.org/2000/svg" width="627" height="627">
<path d="M0 0 C-0.4155843 4.46402906 -3.52613674 6.90601071 -6.56640625 9.859375 C-7.11989243 10.40861633 -7.6733786 10.95785767 -8.24363708 11.52374268 C-10.00966559 13.27300464 -11.78584692 15.01153644 -13.5625 16.75 C-14.76305441 17.935505 -15.9629326 19.12169524 -17.16210938 20.30859375 C-20.10029095 23.21373293 -23.04762074 26.10929337 -26 29 C-29.91343186 26.77746928 -33.73340355 24.52579949 -37.5 22.0625 C-53.79570561 12.29496781 -73.27905333 10.14276985 -91.703125 13.71875 C-104.01655316 16.92134567 -115.49055936 22.49155311 -125 31 C-125.74765625 31.65484375 -126.4953125 32.3096875 -127.265625 32.984375 C-141.75455587 46.48766431 -148.52182315 64.80080169 -150.28515625 84.125 C-150.78982997 100.27455894 -146.25040344 119.26551265 -134.96875 131.32421875 C-134 133 -134 133 -134.14195251 135.27786255 C-135.27652648 138.87727439 -137.08581026 140.57326155 -139.76000977 143.22998047 C-140.25449112 143.72665222 -140.74897247 144.22332397 -141.25843811 144.73504639 C-142.89330621 146.37222273 -144.54200427 147.99466502 -146.19140625 149.6171875 C-147.33746689 150.7583198 -148.48271338 151.9002703 -149.62718201 153.04299927 C-152.02974658 155.43792378 -154.43861638 157.82624477 -156.8527832 160.20947266 C-159.92863306 163.24594953 -162.9938023 166.2929124 -166.05488682 169.34426689 C-168.99274588 172.27208024 -171.93547178 175.19498089 -174.87890625 178.1171875 C-175.70834338 178.94153101 -175.70834338 178.94153101 -176.55453682 179.78252792 C-184.0628378 187.23533969 -191.65278574 194.47873886 -200 201 C-198.70949346 197.53214592 -197.18242149 194.54831425 -195.1875 191.4375 C-191.7941046 185.83137962 -189.20162898 180.17045179 -187 174 C-186.40638672 172.34871094 -186.40638672 172.34871094 -185.80078125 170.6640625 C-180.07877493 151.83163468 -181.74084967 131.27829435 -186.80859375 112.51171875 C-193.92373881 86.15100044 -188.90548144 55.57879427 -175.79956055 31.88720703 C-173.41805698 27.74685866 -170.94091924 23.76691816 -168 20 C-166.02 20.66 -164.04 21.32 -162 22 C-161.71576172 20.9790625 -161.71576172 20.9790625 -161.42578125 19.9375 C-159.42855251 15.8226616 -156.46112328 13.14267834 -153.1875 10 C-152.57068359 9.39671875 -151.95386719 8.7934375 -151.31835938 8.171875 C-150.40860352 7.28242188 -150.40860352 7.28242188 -149.48046875 6.375 C-148.89185059 5.79878906 -148.30323242 5.22257812 -147.69677734 4.62890625 C-146.61874243 3.59399273 -145.52171964 2.57823705 -144.40087891 1.58984375 C-142.81820802 0.21226923 -142.81820802 0.21226923 -141 -2 C-141.04497842 -4.27523089 -141.04497842 -4.27523089 -142 -6 C-98.90498391 -36.82292542 -40.59988857 -33.54960852 0 0 Z " fill="#FFFFFF" transform="translate(389,137)"/>
<path d="M0 0 C0.99 0.495 0.99 0.495 2 1 C1.49210938 1.77601562 0.98421875 2.55203125 0.4609375 3.3515625 C-14.2071849 26.37007667 -19.6569379 51.33455322 -13.86328125 78.171875 C-13.43595703 80.06679687 -13.43595703 80.06679687 -13 82 C-12.45670925 84.49964756 -11.91497275 86.99963358 -11.375 89.5 C-11.13523437 90.5621875 -10.89546875 91.624375 -10.6484375 92.71875 C-4.78802091 122.3738701 -11.5889392 153.3760926 -28.2421875 178.421875 C-28.82226562 179.27265625 -29.40234375 180.1234375 -30 181 C-31.98 180.67 -33.96 180.34 -36 180 C-36.53367187 180.68964844 -37.06734375 181.37929688 -37.6171875 182.08984375 C-49.72727273 197.36363636 -49.72727273 197.36363636 -57 201 C-56.67 202.98 -56.34 204.96 -56 207 C-83.52726965 224.75080891 -113.92976523 232.81806119 -146.5625 226.375 C-166.25797427 222.05288879 -183.94987033 213.48772214 -199 200 C-193.75541414 193.63409696 -187.97902678 187.86429388 -182.125 182.0625 C-181.14039081 181.08291763 -180.156014 180.10310163 -179.171875 179.12304688 C-176.78351797 176.74639748 -174.39284788 174.37212644 -172 172 C-171.29439941 172.46180664 -170.58879883 172.92361328 -169.86181641 173.39941406 C-164.50400495 176.86489983 -159.23255774 180.20170872 -153.375 182.75 C-152.71040771 183.0394751 -152.04581543 183.3289502 -151.36108398 183.62719727 C-133.20290246 191.10284874 -113.42415585 190.36652055 -95.125 183.75 C-75.26015966 175.40923474 -61.24777959 160.46809064 -52.99609375 140.73828125 C-46.31022929 122.35870875 -46.86454816 101.49012099 -54.90625 83.6328125 C-57.74839815 77.65323673 -60.66097177 72.06542805 -65 67 C-63.34986235 62.74443702 -60.17055778 59.90420204 -56.98974609 56.76269531 C-56.3749791 56.14763626 -55.7602121 55.53257721 -55.1268158 54.89888 C-53.09706176 52.87051742 -51.06031925 50.84932774 -49.0234375 48.828125 C-47.61338475 47.42180303 -46.20377342 46.01503836 -44.79458618 44.60784912 C-41.08687958 40.90777382 -37.37320576 37.21374433 -33.65826416 33.52093506 C-29.86751741 29.75065747 -26.08243543 25.97470239 -22.296875 22.19921875 C-14.87012159 14.7939064 -7.43705286 7.39496768 0 0 Z " fill="#FFFFFF" transform="translate(437,110)"/>
<path d="M0 0 C36.63 0 73.26 0 111 0 C111 4.95 111 9.9 111 15 C97.8 15 84.6 15 71 15 C71 24.24 71 33.48 71 43 C84.2 43 97.4 43 111 43 C111 47.95 111 52.9 111 58 C97.8 58 84.6 58 71 58 C71 67.57 71 77.14 71 87 C74.135 86.979375 77.27 86.95875 80.5 86.9375 C81.95696289 86.95478149 81.95696289 86.95478149 83.44335938 86.97241211 C88.2349711 86.83254305 91.24450596 86.26587262 94.80859375 82.95117188 C95.49562378 82.31710922 96.18265381 81.68304657 96.89050293 81.0297699 C100.37038795 77.68140504 103.81644454 74.30621144 107.21875 70.87890625 C107.96209595 70.13414536 108.70544189 69.38938446 109.47131348 68.62205505 C111.81659301 66.27123255 114.15834836 63.91693569 116.5 61.5625 C118.10132961 59.95614801 119.70288998 58.35002603 121.3046875 56.74414062 C125.20579582 52.83207906 129.10375017 48.91690021 133 45 C127.72 44.67 122.44 44.34 117 44 C117 39.71 117 35.42 117 31 C119.11019531 31.05542969 121.22039062 31.11085938 123.39453125 31.16796875 C139.78278918 32.23006 139.78278918 32.23006 154.01635742 26.04418945 C155.885763 23.81702987 157.4828938 21.47754811 159 19 C161.71401294 17.64299353 163.84846316 17.8876139 166.8828125 17.90234375 C168.04941406 17.90556641 169.21601563 17.90878906 170.41796875 17.91210938 C171.64128906 17.92048828 172.86460937 17.92886719 174.125 17.9375 C175.35605469 17.94201172 176.58710938 17.94652344 177.85546875 17.95117188 C180.90369392 17.9629867 183.95182314 17.97945972 187 18 C183.49102731 22.18423892 179.91939465 26.19588166 176 30 C190.88323767 31.8850657 190.88323767 31.8850657 204.59375 27.99609375 C206.68685351 25.76693851 208.33419623 23.5518696 210 21 C210.66 21 211.32 21 212 21 C213.43812673 22.56940801 214.8003005 24.20874035 216.125 25.875 C216.92035156 26.87144531 217.71570313 27.86789062 218.53515625 28.89453125 C219.34855469 29.91933594 220.16195312 30.94414062 221 32 C221.78246094 32.95261719 222.56492187 33.90523438 223.37109375 34.88671875 C224.09425781 35.76972656 224.81742188 36.65273438 225.5625 37.5625 C226.22378906 38.36816406 226.88507813 39.17382812 227.56640625 40.00390625 C229 42 229 42 229 44 C228.27466568 43.88595322 227.54933136 43.77190643 226.80201721 43.65440369 C192.06806451 37.90464886 192.06806451 37.90464886 159.13583374 46.18702698 C154.86803324 49.53119119 151.42311711 53.53971867 148.046875 57.7578125 C147.54659664 58.37936596 147.04631828 59.00091942 146.53087997 59.64130783 C143.94349609 62.89133284 141.41406221 66.18313329 138.90447998 69.49346924 C126.61809057 85.67853614 114.70130363 100.82146058 93.55234432 104.22005367 C75.75952736 106.42868007 57.82240126 106.1937319 39.9375 105.5625 C39.23606888 105.53835982 38.53463777 105.51421964 37.81195116 105.48934793 C19.50357878 104.84741057 1.24361082 103.67856345 -17 102 C-16.0636169 100.89661782 -15.12563812 99.79458971 -14.18701172 98.69311523 C-13.66485077 98.07927475 -13.14268982 97.46543427 -12.60470581 96.83299255 C-10.23001076 94.12047147 -7.69567399 91.58776807 -5.125 89.0625 C-4.62742187 88.56943359 -4.12984375 88.07636719 -3.6171875 87.56835938 C-2.41379715 86.37654008 -1.20724635 85.18791322 0 84 C0.72751465 84.48218994 0.72751465 84.48218994 1.46972656 84.97412109 C5.08275796 86.43899546 8.64100351 86.35777184 12.484375 86.4140625 C13.29996887 86.43342865 14.11556274 86.4527948 14.95587158 86.4727478 C17.55380892 86.53239575 20.15179093 86.57886942 22.75 86.625 C24.51434194 86.66319342 26.27866551 86.70224595 28.04296875 86.7421875 C32.36188207 86.83969824 36.68060619 86.91938263 41 87 C41 77.43 41 67.86 41 58 C27.47 58 13.94 58 0 58 C0 53.05 0 48.1 0 43 C13.53 43 27.06 43 41 43 C41 33.76 41 24.52 41 15 C27.47 15 13.94 15 0 15 C0 10.05 0 5.1 0 0 Z " fill="#FFFFFF" transform="translate(85,379)"/>
<path d="M0 0 C4.52065428 -0.049377 9.04115217 -0.08570823 13.56201172 -0.10986328 C15.10045098 -0.11993118 16.63887107 -0.13358646 18.17724609 -0.15087891 C20.38644133 -0.17509317 22.59538395 -0.18647491 24.8046875 -0.1953125 C25.49432587 -0.20563507 26.18396423 -0.21595764 26.89450073 -0.22659302 C28.59800906 -0.22699478 30.30085943 -0.12191026 32 0 C34.37430723 2.37430723 34.26655014 2.9056799 34.33813477 6.13916016 C34.36057755 6.99410065 34.38302032 7.84904114 34.40614319 8.72988892 C34.4235984 10.12042984 34.4235984 10.12042984 34.44140625 11.5390625 C34.45517807 12.49388519 34.46894989 13.44870789 34.48313904 14.4324646 C34.50644734 16.45833518 34.52369421 18.48428306 34.53540039 20.51025391 C34.56222093 23.5929246 34.63706818 26.67210684 34.71289062 29.75390625 C34.72955759 31.72393527 34.74332069 33.69399142 34.75390625 35.6640625 C34.78376114 36.5789444 34.81361603 37.49382629 34.84437561 38.43643188 C34.80158131 44.74620966 33.20556482 47.87073559 28.7855072 52.36312866 C27.24409667 53.77622334 25.68604886 55.17113036 24.125 56.5625 C21.30177856 59.3547909 21.30177856 59.3547909 21 66 C26.61 66 32.22 66 38 66 C38 64.68 38 63.36 38 62 C33.38 62 28.76 62 24 62 C25.65895231 58.68209538 26.82297668 56.83336345 29.3125 54.25 C29.88613281 53.63640625 30.45976562 53.0228125 31.05078125 52.390625 C33.50896887 50.63688794 35.0458608 50.735602 38 51 C37.9071875 49.9378125 37.814375 48.875625 37.71875 47.78125 C37.03845361 36.53510037 37.03845361 36.53510037 39.78125 32.15625 C41.76316461 30.23016397 43.7149434 28.55057412 46 27 C45.60167969 26.54109375 45.20335937 26.0821875 44.79296875 25.609375 C44.26316406 24.99578125 43.73335937 24.3821875 43.1875 23.75 C42.66542969 23.14671875 42.14335938 22.5434375 41.60546875 21.921875 C39.99707924 19.99650362 38.48780592 18.01948431 37 16 C50.73452915 14.46636771 50.73452915 14.46636771 56.2890625 18.2265625 C58.71999024 20.71353469 60.92713867 23.20960974 63 26 C61.4608199 29.66752005 59.24514548 31.98580573 56.4296875 34.765625 C55.62257324 35.56774414 54.81545898 36.36986328 53.98388672 37.19628906 C52.9579541 38.20401367 51.93202148 39.21173828 50.875 40.25 C47.61625 43.4675 44.3575 46.685 41 50 C50.57 50.33 60.14 50.66 70 51 C70 54.63 70 58.26 70 62 C65.38 62 60.76 62 56 62 C56 63.32 56 64.64 56 66 C60.62 66 65.24 66 70 66 C70 69.3 70 72.6 70 76 C65.38 76 60.76 76 56 76 C56 77.32 56 78.64 56 80 C60.62 80 65.24 80 70 80 C70 83.63 70 87.26 70 91 C65.38 91 60.76 91 56 91 C56 92.32 56 93.64 56 95 C57.22976563 94.89171875 57.22976563 94.89171875 58.484375 94.78125 C59.56203125 94.6884375 60.6396875 94.595625 61.75 94.5 C62.81734375 94.4071875 63.8846875 94.314375 64.984375 94.21875 C71.66921587 93.73383926 71.66921587 93.73383926 74.359375 95.8984375 C75.14828125 96.71570313 75.9371875 97.53296875 76.75 98.375 C77.54921875 99.18710937 78.3484375 99.99921875 79.171875 100.8359375 C81 103 81 103 81 105 C54.93 105 28.86 105 2 105 C1.979375 98.60625 1.95875 92.2125 1.9375 85.625 C1.928396 83.62775879 1.91929199 81.63051758 1.90991211 79.57275391 C1.90698653 77.95735745 1.90443949 76.34196025 1.90234375 74.7265625 C1.8946698 73.50779419 1.8946698 73.50779419 1.88684082 72.2644043 C1.88647959 69.8405596 1.9348123 67.42290377 2 65 C2.00346939 64.14852386 2.00693878 63.29704773 2.01051331 62.41976929 C2.29140332 55.61613186 4.29274438 52.45126979 9.22265625 47.8984375 C9.84273056 47.29109772 10.46280487 46.68375793 11.10166931 46.05801392 C13.06835431 44.14132505 15.06404322 42.25848104 17.0625 40.375 C18.40895403 39.07373552 19.7533786 37.77036762 21.09570312 36.46484375 C24.3741707 33.28509332 27.67902027 30.13529942 31 27 C30.3761441 26.27996292 30.3761441 26.27996292 29.73968506 25.54537964 C29.19620422 24.91536041 28.65272339 24.28534119 28.09277344 23.63623047 C27.55311951 23.01183075 27.01346558 22.38743103 26.4574585 21.74411011 C25 20 25 20 23.515625 17.8203125 C21.38086721 14.96079126 19.5196049 13.29260363 15.92822266 12.60107422 C10.62512659 12.01837625 5.33032701 11.9605161 0 12 C0 8.04 0 4.08 0 0 Z M21 76 C21 77.32 21 78.64 21 80 C26.61 80 32.22 80 38 80 C38 78.68 38 77.36 38 76 C32.39 76 26.78 76 21 76 Z M21 91 C21 92.32 21 93.64 21 95 C26.61 95 32.22 95 38 95 C38 93.68 38 92.36 38 91 C32.39 91 26.78 91 21 91 Z " fill="#FFFFFF" transform="translate(475,376)"/>
<path d="M0 0 C0.2740104 5.92207369 0.4724529 11.84038635 0.60424805 17.76733398 C0.65922882 19.778405 0.73404768 21.78904312 0.82983398 23.79858398 C0.9648747 26.70665337 1.02596619 29.60887604 1.07421875 32.51953125 C1.13099289 33.40332962 1.18776703 34.28712799 1.2462616 35.19770813 C1.25188105 41.01479678 -0.57587263 44.58762203 -4.2421875 49.08789062 C-9.87762613 54.69632106 -15.75650267 55.19716538 -23.43470764 55.27742767 C-26.35799422 55.24532964 -29.27707986 55.16077862 -32.19921875 55.07421875 C-34.24611711 55.05367091 -36.29307003 55.0380277 -38.34004211 55.02705383 C-43.69591887 54.98529781 -49.04844955 54.87747087 -54.40301514 54.75531006 C-59.87954449 54.64224399 -65.35662123 54.59243024 -70.83398438 54.53710938 C-81.55744997 54.41957088 -92.27844546 54.23214203 -103 54 C-103.76420099 43.86087155 -103.4479662 37.03698596 -96.71875 29.00390625 C-96.02632706 28.15771729 -95.33390411 27.31152832 -94.62049866 26.43969727 C-92.31776816 23.73914168 -89.93496634 21.14423291 -87.5 18.5625 C-86.67974335 17.67658173 -85.85948669 16.79066345 -85.01437378 15.87789917 C-61.739122 -8.26785916 -30.73214408 -3.7214038 0 0 Z M-75 14 C-75.33 15.98 -75.66 17.96 -76 20 C-58.84 20 -41.68 20 -24 20 C-24 18.02 -24 16.04 -24 14 C-40.83 14 -57.66 14 -75 14 Z M-76 33 C-76 34.98 -76 36.96 -76 39 C-58.84 39 -41.68 39 -24 39 C-24 37.02 -24 35.04 -24 33 C-41.16 33 -58.32 33 -76 33 Z " fill="#FFFFFF" transform="translate(310,427)"/>
<path d="M0 0 C2.40890726 2.40890726 3.3602694 4.83625198 4.70703125 7.9296875 C7.95016592 13.12262217 13.4166332 15.31436402 18.75 17.8125 C32.28550259 24.42546351 42.40409529 33.5979084 48 48 C49.29331504 52.05090054 50 55.7145412 50 60 C49.01 60 48.02 60 47 60 C47.17917969 60.50273437 47.35835938 61.00546875 47.54296875 61.5234375 C49.70673353 73.24845348 44.76808355 86.21588834 38.3125 95.6875 C28.71077706 108.270904 16.26531218 113.38854882 1 116 C0.67 116 0.34 116 0 116 C0 105.11 0 94.22 0 83 C2.97 81.35 5.94 79.7 9 78 C12.84998023 73.2110002 13.59821533 69.46788002 13.3203125 63.36328125 C12.68915649 58.70658144 10.99418314 55.94185771 7.625 52.75 C4.74141393 50.69742211 4.74141393 50.69742211 0 49 C0 32.83 0 16.66 0 0 Z " fill="#FFFFFF" transform="translate(316,158)"/>
<path d="M0 0 C9.24 0 18.48 0 28 0 C28 2.97 28 5.94 28 9 C42.52 9 57.04 9 72 9 C72 13.62 72 18.24 72 23 C63.42 23.33 54.84 23.66 46 24 C49.13203406 27.2931101 52.27147796 30.57176298 55.44213867 33.82666016 C56.51633307 34.93597587 57.58415152 36.05150386 58.64526367 37.17333984 C60.1753772 38.78873839 61.72733701 40.38010876 63.28515625 41.96875 C63.75212418 42.47184692 64.2190921 42.97494385 64.70021057 43.49328613 C67.50451628 46.30081543 68.83583033 46.98661621 72.85717773 47.31445312 C73.89430908 47.21068359 74.93144043 47.10691406 76 47 C75.979375 45.8759375 75.95875 44.751875 75.9375 43.59375 C76.73308364 37.2402863 81.54078018 33.67372099 86 29.5 C86.845625 28.67757813 87.69125 27.85515625 88.5625 27.0078125 C94.78986711 21 94.78986711 21 96 21 C96.04940929 26.49925421 96.08572395 31.99837942 96.10986328 37.49780273 C96.11992567 39.36891938 96.13357691 41.24002028 96.15087891 43.11108398 C96.17511684 45.79935591 96.18648063 48.48742006 96.1953125 51.17578125 C96.20563507 52.01337479 96.21595764 52.85096832 96.22659302 53.71394348 C96.22774341 59.65838488 96.22774341 59.65838488 94 63 C91.25619096 63.35442304 88.7437489 63.51603943 85.9921875 63.5390625 C84.79301193 63.55759781 84.79301193 63.55759781 83.5696106 63.57650757 C81.87330455 63.59610265 80.1768843 63.60731099 78.48046875 63.61083984 C75.90426612 63.62484095 73.33302821 63.69202481 70.7578125 63.76171875 C56.9790796 63.96246037 56.9790796 63.96246037 52.62890625 60.484375 C50.90234375 58.56298828 50.90234375 58.56298828 49 56 C33.31119814 33.94211239 33.31119814 33.94211239 9.92529297 22.41699219 C-6.61201196 20.46004408 -23.45972049 21.54358018 -40 23 C-40 18.38 -40 13.76 -40 9 C-25.15 9 -10.3 9 5 9 C3.52174919 3.0745356 3.52174919 3.0745356 0 0 Z " fill="#FFFFFF" transform="translate(355,418)"/>
<path d="M0 0 C0 10.56 0 21.12 0 32 C-2.97 33.65 -5.94 35.3 -9 37 C-12.30196832 41.83214875 -13.75596004 45.88666573 -13.44140625 51.76171875 C-12.64054635 55.82271631 -10.96616342 59.11417017 -8 62 C-5.36 63.32 -2.72 64.64 0 66 C0 81.84 0 97.68 0 114 C-2.0103916 111.9896084 -2.64828654 110.68600059 -3.75 108.125 C-6.61236369 102.33759313 -10.81430649 100.4093992 -16.6875 98.25 C-30.20999466 93.02401334 -39.772633 82.71756203 -45.8125 69.80078125 C-47.91331423 64.84590031 -49.33135472 60.4673529 -49 55 C-48.34 55 -47.68 55 -47 55 C-47.03480469 54.18917969 -47.06960938 53.37835938 -47.10546875 52.54296875 C-47.48370353 37.07136522 -43.08964413 24.55909429 -32.390625 13.2578125 C-23.07027168 4.45525658 -12.70681443 0 0 0 Z " fill="#FFFFFF" transform="translate(311,175)"/>
<path d="M0 0 C0.89168884 -0.00845947 1.78337769 -0.01691895 2.7020874 -0.02563477 C4.16560638 -0.01652573 4.16560638 -0.01652573 5.65869141 -0.00723267 C6.68818909 -0.01248962 7.71768677 -0.01774658 8.77838135 -0.02316284 C12.18915883 -0.03639127 15.59947148 -0.02761447 19.01025391 -0.01748657 C21.37532644 -0.01950648 23.74039836 -0.02241723 26.10546875 -0.02618408 C31.06532717 -0.0306113 36.02502366 -0.02416344 40.98486328 -0.01016235 C47.35078826 0.00692956 53.71633382 -0.00290947 60.08224487 -0.02087975 C64.96690747 -0.03170674 69.85147974 -0.02827619 74.73614502 -0.02049637 C77.08376103 -0.01849137 79.43138518 -0.0209641 81.7789917 -0.02793503 C85.05682179 -0.0355315 88.33403258 -0.02397012 91.61181641 -0.00723267 C92.58749573 -0.01330536 93.56317505 -0.01937805 94.56842041 -0.02563477 C95.46010925 -0.01717529 96.3517981 -0.00871582 97.27050781 0 C98.43303574 0.00169662 98.43303574 0.00169662 99.61904907 0.00342751 C102.17311176 0.48166189 103.06493601 1.3459224 104.63525391 3.38095093 C104.97583008 5.64926147 104.97583008 5.64926147 104.92822266 8.26766968 C104.91855469 9.20546265 104.90888672 10.14325562 104.89892578 11.10946655 C104.87378906 12.0859314 104.84865234 13.06239624 104.82275391 14.06845093 C104.80245117 15.55055054 104.80245117 15.55055054 104.78173828 17.06259155 C104.74638052 19.5022771 104.69257353 21.94168255 104.63525391 24.38095093 C99.35525391 24.38095093 94.07525391 24.38095093 88.63525391 24.38095093 C88.63525391 21.74095093 88.63525391 19.10095093 88.63525391 16.38095093 C62.23525391 16.38095093 35.83525391 16.38095093 8.63525391 16.38095093 C8.63525391 19.02095093 8.63525391 21.66095093 8.63525391 24.38095093 C3.35525391 24.38095093 -1.92474609 24.38095093 -7.36474609 24.38095093 C-7.44553386 20.94298256 -7.505144 17.50690366 -7.55224609 14.06845093 C-7.57738281 13.09198608 -7.60251953 12.11552124 -7.62841797 11.10946655 C-7.63808594 10.17167358 -7.64775391 9.23388062 -7.65771484 8.26766968 C-7.67342529 7.40359497 -7.68913574 6.53952026 -7.70532227 5.64926147 C-7.02107844 1.09205043 -4.28797602 0.00625795 0 0 Z " fill="#FFFFFF" transform="translate(322.36474609375,398.6190490722656)"/>
<path d="M0 0 C9.9 0 19.8 0 30 0 C30 1.98 30 3.96 30 6 C40.89 5.67 51.78 5.34 63 5 C62.01 4.01 61.02 3.02 60 2 C59.01 1.01 59.01 1.01 58 0 C67.9 0 77.8 0 88 0 C88 1.98 88 3.96 88 6 C92.62 6 97.24 6 102 6 C102 10.29 102 14.58 102 19 C97.38 19 92.76 19 88 19 C88 20.65 88 22.3 88 24 C80.08 24 72.16 24 64 24 C64 22.35 64 20.7 64 19 C52.78 19 41.56 19 30 19 C30 20.65 30 22.3 30 24 C22.08 24 14.16 24 6 24 C6 22.35 6 20.7 6 19 C1.38 19 -3.24 19 -8 19 C-8 14.71 -8 10.42 -8 6 C-1.565 5.505 -1.565 5.505 5 5 C4.01 4.01 3.02 3.02 2 2 C1.34 1.34 0.68 0.68 0 0 Z " fill="#FFFFFF" transform="translate(324,372)"/>
<path d="M0 0 C9.57 0 19.14 0 29 0 C29 1.98 29 3.96 29 6 C46.16 6 63.32 6 81 6 C81 11.28 81 16.56 81 22 C78.13900635 22.01401855 78.13900635 22.01401855 75.22021484 22.02832031 C68.90566733 22.06389693 62.59147982 22.11772599 56.27718163 22.18390274 C52.450233 22.22334698 48.62351341 22.25555011 44.79638672 22.27099609 C41.10025822 22.2861833 37.40475949 22.32066404 33.7089119 22.36830902 C32.30163687 22.38310181 30.89427192 22.39103981 29.4869194 22.39188385 C27.5098897 22.39426121 25.53294925 22.42366946 23.55615234 22.45410156 C21.87070816 22.46742523 21.87070816 22.46742523 20.1512146 22.48101807 C15.05826311 23.31978983 11.4640037 26.4594254 7.625 29.75 C6.325625 30.86375 6.325625 30.86375 5 32 C5 28.7 5 25.4 5 22 C-5.56 22 -16.12 22 -27 22 C-27 16.72 -27 11.44 -27 6 C-11.655 5.505 -11.655 5.505 4 5 C2.68 3.35 1.36 1.7 0 0 Z " fill="#FFFFFF" transform="translate(229,372)"/>
<path d="M0 0 C1.71307148 -0.01689206 3.42643641 -0.06880457 5.13671875 -0.16796875 C12.92984479 -0.30732428 19.39364387 0.09306319 25.6875 5 C33.27313414 13.76796292 30.62565111 26.25017646 30 37 C22.08 37 14.16 37 6 37 C5.505 24.13 5.505 24.13 5 11 C2.68935547 13.8153125 2.68935547 13.8153125 0.33203125 16.6875 C-17.7404808 37.7384815 -17.7404808 37.7384815 -29.18359375 38.7265625 C-36.16247866 39.05281708 -43.14239994 38.25779728 -50 37 C-44.05865684 29.99377324 -37.87638199 23.26546525 -31.49902344 16.65454102 C-30.16685255 15.26038221 -28.84835561 13.85302745 -27.54394531 12.43286133 C-18.81602547 2.94909222 -13.54810422 -2.1088932 0 0 Z " fill="#FFFFFF" transform="translate(353,444)"/>
<path d="M0 0 C4.29 0 8.58 0 13 0 C13.495 14.355 13.495 14.355 14 29 C14.33 19.43 14.66 9.86 15 0 C18.96 0 22.92 0 27 0 C27.30044433 4.88838336 27.51602189 9.77122852 27.65917969 14.66674805 C27.71892234 16.32492772 27.80036507 17.98249198 27.90527344 19.63842773 C28.3986918 27.63712631 28.82687254 34.84246062 23.37112427 41.20791626 C21.25700454 43.37456853 19.0537352 45.40948754 16.77807617 47.40512085 C14.31986625 49.61005887 12.04897253 51.97585397 9.75671387 54.35102844 C7.42092454 56.76654244 5.04504044 59.14058886 2.66894531 61.51635742 C0.83631375 63.35123364 -0.98809196 65.19406022 -2.8125 67.03710938 C-3.98128449 68.20881867 -5.15053663 69.3800617 -6.3203125 70.55078125 C-7.13424973 71.37549675 -7.13424973 71.37549675 -7.96463013 72.21687317 C-11.77110087 76 -11.77110087 76 -14 76 C-14.35913926 73.09312071 -14.61051115 70.23134983 -14.8125 67.3125 C-14.92142578 66.51521484 -15.03035156 65.71792969 -15.14257812 64.89648438 C-15.30031106 61.82675884 -15.11621438 59.89072212 -14 57 C-12.48298107 55.56762106 -10.95669141 54.14159957 -9.35482788 52.80477905 C-4.43608342 48.69535758 -0.85311706 45.39320594 0.16333008 38.8425293 C0.65274948 32.95290981 0.49819928 27.08760795 0.3125 21.1875 C0.29547638 19.12699372 0.28436211 17.06642975 0.27929688 15.00585938 C0.25429172 10.00063865 0.14946183 5.00298768 0 0 Z " fill="#FFFFFF" transform="translate(446,376)"/>
<path d="M0 0 C0 21.12 0 42.24 0 64 C-5.61 64 -11.22 64 -17 64 C-19.31082521 61.68917479 -19.29663691 61.15277094 -19.51269531 58.01953125 C-19.56991257 57.19636414 -19.62712982 56.37319702 -19.68608093 55.52508545 C-19.93960275 50.68363297 -20.1385258 45.84698121 -20.25 41 C-20.27367645 39.99223511 -20.29735291 38.98447021 -20.32174683 37.94616699 C-20.59148761 17.09430451 -20.59148761 17.09430451 -12.60644531 8.47265625 C-2.90905097 0 -2.90905097 0 0 0 Z " fill="#FFFFFF" transform="translate(473,417)"/>
<path d="M0 0 C4.35990873 -0.07418046 8.71948279 -0.12861544 13.07983398 -0.16479492 C14.56297199 -0.17987768 16.04606544 -0.20034689 17.52905273 -0.22631836 C19.66140745 -0.26272616 21.79317235 -0.27973073 23.92578125 -0.29296875 C25.85031128 -0.31653442 25.85031128 -0.31653442 27.8137207 -0.34057617 C31 0 31 0 32.67785645 1.24182129 C34.35770425 3.475673 34.3639094 4.69478197 34.34057617 7.47143555 C34.34023628 8.82249641 34.34023628 8.82249641 34.33988953 10.20085144 C34.32440567 11.16968765 34.30892181 12.13852386 34.29296875 13.13671875 C34.28872391 14.13129593 34.28447906 15.12587311 34.28010559 16.15058899 C34.26330153 19.32983375 34.22564576 22.50844656 34.1875 25.6875 C34.17245541 27.84178773 34.15876662 29.99608538 34.14648438 32.15039062 C34.11339227 37.43383755 34.06159771 42.7168116 34 48 C29.05 48 24.1 48 19 48 C18.0400537 39.36048333 18.0400537 39.36048333 20.67578125 35.625 C23.60716498 32.70969333 26.55927144 30.29381904 30 28 C27.3848304 21.98368087 22.73458981 16.28900038 17 13 C11.45267041 11.46970218 5.69917831 11.71270262 0 12 C0 8.04 0 4.08 0 0 Z " fill="#FFFFFF" transform="translate(511,376)"/>
<path d="M0 0 C3.96 0 7.92 0 12 0 C12.27408962 5.77964926 12.47248476 11.5554402 12.60424805 17.34008789 C12.65921654 19.30267282 12.73402639 21.26481452 12.82983398 23.22583008 C13.64753315 40.40625793 13.64753315 40.40625793 9.53759766 45.81005859 C6.97512955 48.60145549 4.16242616 50.90365114 1 53 C0.67 53 0.34 53 0 53 C0 35.51 0 18.02 0 0 Z " fill="#FFFFFF" transform="translate(432,376)"/>
<path d="M0 0 C14.67904306 -1.36510045 14.67904306 -1.36510045 20.16796875 1.86328125 C22.52949251 4.15722563 24.43493335 6.10030596 26 9 C25.73198441 13.22039744 23.00835468 15.34937984 20.125 18.203125 C19.64047363 18.6857782 19.15594727 19.1684314 18.65673828 19.66571045 C17.63468036 20.68106163 16.60903858 21.69281638 15.58007812 22.70117188 C13.99862402 24.25134876 12.42820625 25.81205923 10.859375 27.375 C3.16342603 35 3.16342603 35 2 35 C0.9264574 20.95874439 0.9264574 20.95874439 3.55859375 16.15625 C5.27617952 14.24858934 6.97324779 12.57176702 9 11 C8.60167969 10.54109375 8.20335937 10.0821875 7.79296875 9.609375 C7.26316406 8.99578125 6.73335938 8.3821875 6.1875 7.75 C5.66542969 7.14671875 5.14335937 6.5434375 4.60546875 5.921875 C2.99707924 3.99650362 1.48780592 2.01948431 0 0 Z " fill="#FFFFFF" transform="translate(476,392)"/>
</svg>
